<?xml version="1.0" encoding="UTF-8"?>
<!DOCTYPE svg PUBLIC "-//W3C//DTD SVG 1.1//EN" "http://www.w3.org/Graphics/SVG/1.1/DTD/svg11.dtd">
<svg version="1.1" id="Layer_1" xmlns="http://www.w3.org/2000/svg" xmlns:xlink="http://www.w3.org/1999/xlink" x="0px" y="0px" width="32px" height="32px" viewBox="0 0 32 32" enable-background="new 0 0 32 32" xml:space="preserve">
  <g id="main">
    <g id="icon">
      <path d="M15.48,2.477L15.11,2.578L14.76,2.734L14.43,2.94L14.14,3.193L13.88,3.489L13.68,3.823L13.49,4.301L13.41,4.787L13.42,5.269L13.52,5.732L13.71,6.164L13.99,6.551L14.34,6.881L14.77,7.139L15.27,7.306L15.79,7.361L16.31,7.305L16.79,7.136L17.15,6.927L17.46,6.678L17.73,6.393L17.94,6.078L18.11,5.737L18.22,5.376L18.27,4.998L18.26,4.61L18.19,4.201L18.05,3.821L17.86,3.475L17.61,3.17L17.32,2.91L16.99,2.7L16.63,2.547L16.23,2.456L15.85,2.435zM7.664,4.848L7.258,4.976L6.886,5.172L6.554,5.43L6.269,5.742L6.038,6.098L5.865,6.492L5.758,6.915L5.722,7.359L5.782,7.919L5.99,8.459L6.156,8.741L6.417,9.024L6.705,9.282L6.991,9.449L7.535,9.654L8.103,9.713L8.591,9.669L9.04,9.537L9.451,9.314L9.826,9L10.23,8.482L10.49,7.874L10.59,7.378L10.58,6.892L10.48,6.428L10.28,5.998L10.01,5.615L9.667,5.29L9.255,5.035L8.782,4.863L8.227,4.806zM4.915,12.04L4.56,12.14L4.225,12.29L3.917,12.49L3.638,12.73L3.396,13L3.193,13.31L3.036,13.65L2.928,14L2.891,14.54L2.946,15.07L3.096,15.5L3.304,15.88L3.603,16.24L3.932,16.53L4.287,16.72L4.675,16.86L5.247,16.91L5.817,16.86L6.324,16.66L6.767,16.39L7.138,16.04L7.429,15.63L7.633,15.17L7.742,14.69L7.75,14.18L7.648,13.67L7.372,13.09L6.955,12.6L6.428,12.24L5.823,12.04L5.366,12zM7.913,19.38L7.311,19.69L6.819,20.14L6.606,20.45L6.442,20.77L6.328,21.11L6.265,21.46L6.252,21.81L6.291,22.16L6.381,22.51L6.524,22.85L6.712,23.16L6.94,23.43L7.202,23.66L7.492,23.85L7.806,24L8.139,24.09L8.485,24.14L8.839,24.12L9.311,24.03L9.745,23.86L10.13,23.62L10.47,23.31L10.74,22.96L10.94,22.56L11.07,22.12L11.12,21.65L11.09,21.22L10.98,20.82L10.82,20.44L10.6,20.1L10.32,19.81L9.999,19.57L9.637,19.38L9.239,19.26L8.573,19.23zz" fill="#FFFFFF"/>
      <path d="M13.5,0.03594L12.12,0.2523L10.71,0.6193L9.312,1.128L7.939,1.771L6.604,2.558L5.257,3.514L4.01,4.55L2.978,5.578L2.03,6.786L1.27,8.062L0.8631,8.968L0.5275,9.944L0.2631,10.99L0.06992,12.1L0.01309,12.71L0.0009766,13.73L0.01309,14.76L0.06992,15.37L0.2963,16.64L0.6201,17.89L1.04,19.09L1.554,20.25L2.162,21.37L2.861,22.44L3.651,23.46L4.529,24.43L5.546,25.4L6.597,26.25L7.681,27L8.798,27.63L9.947,28.16L11.13,28.57L12.34,28.87L13.58,29.06L14.91,29.1L16.13,29.04L16.4,28.99L16.04,28.61L15.71,28.12L15.52,27.64L15.5,27.15L15.64,26.71L15.92,26.34L16.34,26.08L16.81,25.84L17.23,25.56L17.97,24.89L18.17,24.65L17.97,24.37L17.07,23.18L16.59,22.35L16.28,21.51L16.12,20.65L16.13,19.79L16.27,19.02L16.52,18.36L16.9,17.81L17.4,17.38L17.67,17.21L18.03,17.04L19.78,16.4L21.54,15.76L22.21,15.46L22.25,15.24L22.37,14.43L22.68,12.98L23.04,11.92L23.24,11.54L23.46,11.27L23.68,11.1L23.91,11.04L24,11.04L23.86,10.85L23.54,10.29L23.37,9.628L23.36,8.883L23.51,8.057L23.7,7.442L23.95,6.851L24.07,6.598L23.88,6.108L23.43,5.084L22.95,4.218L22.42,3.458L21.8,2.756L21.23,2.234L20.63,1.764L19.97,1.347L19.27,0.9828L18.53,0.6719L17.74,0.4145L16.91,0.2107L16.04,0.06094L14.79,0.001562zM16.23,2.456L16.63,2.547L16.99,2.7L17.32,2.91L17.61,3.17L17.86,3.475L18.05,3.821L18.18,4.201L18.26,4.61L18.27,4.998L18.22,5.376L18.11,5.737L17.94,6.078L17.73,6.393L17.46,6.678L17.15,6.927L16.79,7.136L16.31,7.305L15.79,7.361L15.27,7.306L14.77,7.139L14.34,6.881L13.99,6.551L13.71,6.164L13.52,5.732L13.42,5.269L13.41,4.787L13.49,4.301L13.68,3.823L13.88,3.489L14.14,3.193L14.43,2.94L14.76,2.734L15.11,2.578L15.47,2.477L15.85,2.435zM8.781,4.864L9.254,5.036L9.667,5.291L10.01,5.616L10.28,5.999L10.47,6.429L10.58,6.892L10.59,7.378L10.49,7.874L10.23,8.482L9.825,9L9.45,9.314L9.039,9.537L8.59,9.669L8.102,9.713L7.534,9.654L6.99,9.449L6.704,9.282L6.416,9.024L6.155,8.741L5.989,8.459L5.781,7.919L5.721,7.359L5.757,6.915L5.864,6.492L6.037,6.098L6.268,5.742L6.553,5.43L6.885,5.172L7.257,4.976L7.663,4.848L8.227,4.805zM5.824,12.04L6.429,12.24L6.956,12.6L7.373,13.09L7.649,13.67L7.751,14.18L7.743,14.69L7.633,15.17L7.429,15.63L7.138,16.04L6.767,16.39L6.325,16.66L5.818,16.86L5.248,16.91L4.676,16.86L4.288,16.72L3.933,16.53L3.604,16.24L3.305,15.88L3.097,15.5L2.947,15.07L2.892,14.54L2.929,14L3.037,13.64L3.194,13.31L3.397,13L3.639,12.73L3.918,12.49L4.226,12.29L4.561,12.14L4.916,12.04L5.366,12zM9.239,19.26L9.637,19.38L9.999,19.57L10.32,19.81L10.6,20.1L10.82,20.44L10.98,20.82L11.09,21.22L11.12,21.65L11.07,22.12L10.94,22.56L10.74,22.96L10.47,23.31L10.13,23.62L9.745,23.86L9.311,24.03L8.839,24.12L8.485,24.14L8.139,24.09L7.806,24L7.492,23.85L7.202,23.66L6.94,23.43L6.712,23.16L6.524,22.85L6.381,22.51L6.291,22.16L6.252,21.81L6.265,21.46L6.328,21.11L6.442,20.77L6.606,20.45L6.819,20.14L7.311,19.69L7.913,19.38L8.573,19.23zz" fill="#cfcfcf"/>
      <path d="M28.88,0.8561L28.73,1.01L28.63,1.355L28.48,2.006L28.27,2.654L28.01,3.271L27.73,3.83L27.41,4.354L27.06,4.828L25.97,5.976L25.04,6.946L24.81,7.277L24.62,7.628L24.42,8.251L24.34,8.922L24.41,9.606L24.6,10.27L24.76,10.58L24.96,10.86L25.2,11.1L25.47,11.3L25.77,11.46L26.1,11.58L26.46,11.65L26.83,11.68L27.48,11.59L27.78,11.47L28.07,11.3L28.6,10.81L29.11,10.1L29.53,9.201L29.82,8.136L29.98,6.931L29.98,5.605L29.92,4.741L29.81,3.862L29.3,1.445L29.16,0.8359L29.06,0.827zM24.44,11.95L24.12,12.16L23.93,12.48L23.72,13.63L23.4,15.44L22.55,20.56L22.96,20.71L23.62,21.11L23.82,21.24L24.41,21.62L24.8,20.77L25.13,19.82L25.38,19.08L25.67,18.33L25.98,17.72L26.33,17.18L26.72,16.71L26.87,16.57L27.57,14.42L27.82,13.59L27.85,13.25L27.82,13.03L27.75,12.88L27.53,12.68L27.21,12.53L24.66,11.91zz" fill="#cfcfcf"/>
    </g>
    <g id="overlay">
      <path d="M20.6576,22.9259c-1.2121,1.7037,-2.0295,3.2359,-3.9134,4.063c-1.8839,0.8271,7.082,6.1261,9.0575,4.7745c0.8736,-0.5977,1.7315,-1.7287,2.7553,-3.1678c0.0079,-0.0111,0.0152,-0.0225,0.0221,-0.0341L20.6576,22.9259z" fill="#EAB765"/>
      <path d="M29.4288,27.3137c0.2909,-0.6121,-0.2353,-0.9939,-0.6851,-1.3267c-0.5441,-0.4025,-1.674,-1.0767,-1.0566,-1.8507c0.8047,-1.0087,1.9931,-1.6684,2.9284,-2.5378c0.9555,-0.8882,1.7478,-2.2395,0.9744,-3.5019c-0.2456,-0.4009,-0.5242,-0.696,-0.8611,-0.9228c-0.313,-0.2356,-0.6937,-0.4104,-1.1529,-0.5109c-1.4461,-0.3167,-2.462,0.8743,-2.9878,2.0682c-0.5146,1.1686,-0.747,2.5063,-1.436,3.5972c-0.5287,0.837,-1.5355,-0.0133,-2.0941,-0.3954c-0.4619,-0.3159,-0.9993,-0.6818,-1.4821,-0.2063c-0.1201,0.1183,-0.2686,0.3018,-0.4609,0.5637l3.9662,2.8217l3.9663,2.8218C29.2318,27.6665,29.3564,27.466,29.4288,27.3137zM28.9578,19.6632c-0.4385,-0.312,-0.5411,-0.9203,-0.2291,-1.3588c0.312,-0.4385,0.9203,-0.5411,1.3588,-0.2291c0.4385,0.312,0.5411,0.9203,0.2291,1.3588C30.0046,19.8725,29.3963,19.9751,28.9578,19.6632z" fill="#6D6E71"/>
      <rect x="19.9908" y="25.0133" width="9.7437" height="0.812" fill="#E6E7E8" transform="matrix(0.8148 0.5797 -0.5797 0.8148 19.3394 -9.70599)"/>
    </g>
  </g>
</svg>